<svg width="48" height="48" viewBox="0 0 48 48" fill="none" xmlns="http://www.w3.org/2000/svg">
<path d="M24 43.0016C32.8366 43.0016 40 35.8382 40 27.0016C40 21.0794 36.7824 13.2137 32 8.66955L28 13.9983L21 4.99829C14 9.99829 8 19.1905 8 27.0016C8 35.8382 15.1634 43.0016 24 43.0016Z" stroke="#141B34" stroke-width="3" stroke-linejoin="round"/>
<path d="M24 36.9982C28.4182 36.9982 32 32.9688 32 27.9982C32 26.4162 31.6372 24.9296 31 23.6378L27 26.9982L21 18.9962C19 20.9962 16 24.2212 16 27.9982C16 32.9688 19.5817 36.9982 24 36.9982Z" stroke="#141B34" stroke-width="3" stroke-linejoin="round"/>
</svg>
