<svg width="49" height="49" viewBox="0 0 49 49" fill="none" xmlns="http://www.w3.org/2000/svg">
<path d="M17.2912 5.60389C20.241 3.77619 22.8156 4.51273 24.3622 5.68595C24.9964 6.16699 25.3134 6.40753 25.5 6.40753C25.6866 6.40753 26.0036 6.16699 26.6378 5.68595C28.1844 4.51273 30.759 3.77619 33.7088 5.60389C37.5802 8.00253 38.4562 15.9158 29.5266 22.592C27.8258 23.8636 26.9754 24.4992 25.5 24.4992C24.0246 24.4992 23.1742 23.8636 21.4734 22.592C12.5439 15.9158 13.4199 8.00253 17.2912 5.60389Z" stroke="#141B34" stroke-width="3" stroke-linecap="round"/>
<path d="M8.5 28.5H13.2896C13.8779 28.5 14.4582 28.6326 14.9843 28.8872L19.0683 30.8632C19.5945 31.1178 20.1747 31.2502 20.763 31.2502H22.8482C24.865 31.2502 26.5 32.8324 26.5 34.784C26.5 34.8628 26.446 34.9322 26.3676 34.9538L21.2858 36.359C20.3741 36.611 19.398 36.5232 18.55 36.1128L14.1842 34.0006" stroke="#141B34" stroke-width="3" stroke-linecap="round" stroke-linejoin="round"/>
<path d="M26.5 33.5001L35.6856 30.6779C37.314 30.1705 39.0742 30.7721 40.0942 32.1847C40.8318 33.2059 40.5314 34.6685 39.457 35.2885L24.4258 43.9611C23.4698 44.5127 22.3418 44.6473 21.2904 44.3353L8.5 40.5399" stroke="#141B34" stroke-width="3" stroke-linecap="round" stroke-linejoin="round"/>
</svg>
