<svg width="48" height="48" viewBox="0 0 48 48" fill="none" xmlns="http://www.w3.org/2000/svg">
<path d="M14 15L19.884 18.4789C23.3144 20.507 24.6856 20.507 28.116 18.4789L34 15" stroke="#141B34" stroke-width="3" stroke-linecap="round" stroke-linejoin="round"/>
<path d="M23 38.9918C22.0674 38.9796 19.1336 39.0154 18.1977 38.9918C11.9007 38.8332 8.75216 38.754 6.48992 36.4788C4.22766 34.2036 4.16228 31.1322 4.03154 24.9894C3.9895 23.0142 3.98948 21.0508 4.03152 19.0756C4.16228 12.9328 4.22764 9.86144 6.4899 7.58624C8.75216 5.31102 11.9007 5.23178 18.1976 5.07326C22.0786 4.97558 25.9214 4.97558 29.8024 5.07328C36.0994 5.2318 39.2478 5.31106 41.51 7.58626C43.7724 9.86146 43.8378 12.9329 43.9684 19.0757C43.9966 20.3946 44.0058 21.7084 43.9964 23.024" stroke="#141B34" stroke-width="3" stroke-linecap="round" stroke-linejoin="round"/>
<path d="M30.03 29.7732C32.1752 28.4938 34.0476 29.0094 35.1726 29.8306C35.6338 30.1674 35.8644 30.3358 36 30.3358C36.1356 30.3358 36.3662 30.1674 36.8274 29.8306C37.9524 29.0094 39.8248 28.4938 41.97 29.7732C44.7856 31.4522 45.4226 36.9916 38.9284 41.6648C37.6914 42.555 37.073 43 36 43C34.927 43 34.3086 42.555 33.0716 41.6648C26.5774 36.9916 27.2144 31.4522 30.03 29.7732Z" stroke="#141B34" stroke-width="3" stroke-linecap="round"/>
</svg>
