<svg width="48" height="48" viewBox="0 0 48 48" fill="none" xmlns="http://www.w3.org/2000/svg">
<path d="M2.5 44V29.5L9.5 28L20.5 4H28L37.5 27L45.5 29.5V44L37.5 40.5H28L24.5 36.5L20.5 40.5H14L2.5 44Z" fill="#F6F5EC"/>
<path d="M31 30L28 21C24.6864 20.9998 24 23.686 24 26.9998V30" stroke="#141B34" stroke-width="3" stroke-linecap="round" stroke-linejoin="round"/>
<path d="M17 30L20 21C23.3136 20.9998 24 23.686 24 26.9998V30" stroke="#141B34" stroke-width="3" stroke-linecap="round" stroke-linejoin="round"/>
<path d="M43.9558 43.9998C41.6566 42.6588 37.7836 39.6286 32.5774 40.016C31.2584 40.114 30.5982 40.1632 29.9952 40.1168C29.392 40.0704 29.375 40.0666 29.3412 40.0586C26.278 39.349 24 36.6714 24 33.4764V6.3933C24 5.07156 25.0714 4.00006 26.3932 4C27.365 3.99994 28.2404 4.58762 28.6084 5.48712L34.0448 18.776C36.176 23.986 37.2418 26.5908 39.0994 27.9306C39.2138 28.013 39.4256 28.1554 39.5452 28.2298C41.4886 29.442 42.3256 29.442 44 29.442" stroke="#141B34" stroke-width="3" stroke-linecap="round" stroke-linejoin="round"/>
<path d="M4.04416 44C6.34346 42.659 10.2164 39.6288 15.4225 40.016C16.7416 40.114 17.4019 40.1632 18.0049 40.1168C18.608 40.0706 18.6249 40.0666 18.6588 40.0588C21.722 39.3492 24 36.6714 24 33.4764V6.39328C24 5.0715 22.9284 4 21.6068 4C20.635 4 19.7596 4.58764 19.3916 5.4871L13.9552 18.7761C11.8239 23.986 10.7582 26.591 8.90056 27.9308C8.7863 28.0132 8.57434 28.1554 8.45482 28.23C6.51146 29.442 5.6743 29.442 4 29.442" stroke="#141B34" stroke-width="3" stroke-linecap="round" stroke-linejoin="round"/>
</svg>
